<svg width="385" height="245" viewBox="0 0 385 245" fill="none" xmlns="http://www.w3.org/2000/svg">
<rect x="0.847656" y="0.841309" width="383.699" height="243.399" rx="14.3559" fill="url(#paint0_linear_940_143)"/>
<mask id="mask0_940_143" style="mask-type:alpha" maskUnits="userSpaceOnUse" x="0" y="0" width="385" height="245">
<rect x="0.847656" y="0.84082" width="383.699" height="243.399" rx="14.3559" fill="url(#paint1_linear_940_143)"/>
</mask>
<g mask="url(#mask0_940_143)">
<ellipse cx="339.746" cy="19.1547" rx="130.962" ry="65.1363" transform="rotate(29.783 339.746 19.1547)" fill="#26498F"/>
<ellipse cx="34.1565" cy="238.537" rx="130.962" ry="65.1363" transform="rotate(29.783 34.1565 238.537)" fill="#26498F"/>
</g>
<path d="M208.436 35.0991L211.701 26.1709H213.538L216.803 35.0991H215.068L214.354 33.0329H210.872L210.145 35.0991H208.436ZM211.318 31.7574H213.908L212.607 28.0459L211.318 31.7574ZM219.228 35.0991V26.1709H220.861V33.8237H224.815V35.0991H219.228ZM227.529 35.0991V26.1709H230.577C231.623 26.1709 232.482 26.358 233.154 26.7321C233.834 27.0978 234.336 27.6165 234.659 28.2882C234.99 28.9514 235.156 29.7337 235.156 30.635C235.156 31.5363 234.99 32.3229 234.659 32.9946C234.336 33.6579 233.834 34.1765 233.154 34.5507C232.482 34.9163 231.623 35.0991 230.577 35.0991H227.529ZM229.161 33.6961H230.501C231.249 33.6961 231.84 33.5771 232.274 33.339C232.707 33.0924 233.018 32.7438 233.205 32.2931C233.392 31.834 233.485 31.2813 233.485 30.635C233.485 29.9973 233.392 29.4489 233.205 28.9897C233.018 28.5305 232.707 28.1777 232.274 27.9311C231.84 27.6845 231.249 27.5612 230.501 27.5612H229.161V33.6961ZM242.056 35.2522C241.163 35.2522 240.38 35.0566 239.709 34.6655C239.045 34.2743 238.523 33.7344 238.14 33.0456C237.766 32.3484 237.579 31.5449 237.579 30.635C237.579 29.7252 237.766 28.9259 238.14 28.2372C238.523 27.5399 239.045 26.9957 239.709 26.6046C240.38 26.2135 241.163 26.0179 242.056 26.0179C242.94 26.0179 243.718 26.2135 244.39 26.6046C245.061 26.9957 245.584 27.5399 245.958 28.2372C246.333 28.9259 246.52 29.7252 246.52 30.635C246.52 31.5449 246.333 32.3484 245.958 33.0456C245.584 33.7344 245.061 34.2743 244.39 34.6655C243.718 35.0566 242.94 35.2522 242.056 35.2522ZM242.056 33.7854C242.906 33.7854 243.582 33.5048 244.084 32.9436C244.594 32.3824 244.849 31.6129 244.849 30.635C244.849 29.6572 244.594 28.8877 244.084 28.3265C243.582 27.7653 242.906 27.4847 242.056 27.4847C241.205 27.4847 240.525 27.7653 240.015 28.3265C239.505 28.8877 239.25 29.6572 239.25 30.635C239.25 31.6129 239.505 32.3824 240.015 32.9436C240.525 33.5048 241.205 33.7854 242.056 33.7854ZM251.527 35.0991L248.262 26.1709H250.009L252.534 33.4283L255.073 26.1709H256.794L253.529 35.0991H251.527ZM257.424 35.0991L260.689 26.1709H262.526L265.791 35.0991H264.056L263.342 33.0329H259.86L259.133 35.0991H257.424ZM260.306 31.7574H262.896L261.595 28.0459L260.306 31.7574ZM268.216 35.0991V26.1709H269.849L274.045 32.4589V26.1709H275.678V35.0991H274.045L269.849 28.8239V35.0991H268.216ZM278.684 35.0991V26.1709H280.317V35.0991H278.684ZM287.637 35.0991V26.1709L289.27 26.1709V29.8825H293.275V26.1709H294.907V35.0991H293.275V31.209H289.27V35.0991H287.637ZM306.276 35.2522C305.375 35.2522 304.601 35.0609 303.955 34.6782C303.308 34.2871 302.811 33.7471 302.462 33.0584C302.114 32.3611 301.939 31.5576 301.939 30.6478C301.939 29.738 302.114 28.9344 302.462 28.2372C302.811 27.5399 303.308 26.9957 303.955 26.6046C304.601 26.2135 305.375 26.0179 306.276 26.0179C307.347 26.0179 308.223 26.2857 308.903 26.8214C309.592 27.3486 310.021 28.0926 310.192 29.0535H308.393C308.283 28.5688 308.045 28.1904 307.679 27.9183C307.322 27.6377 306.846 27.4974 306.25 27.4974C305.426 27.4974 304.779 27.778 304.312 28.3392C303.844 28.9004 303.61 29.6699 303.61 30.6478C303.61 31.6256 303.844 32.3952 304.312 32.9564C304.779 33.5091 305.426 33.7854 306.25 33.7854C306.846 33.7854 307.322 33.6579 307.679 33.4028C308.045 33.1392 308.283 32.7778 308.393 32.3186H310.192C310.021 33.237 309.592 33.9555 308.903 34.4741C308.223 34.9928 307.347 35.2522 306.276 35.2522ZM317.096 35.2522C316.203 35.2522 315.421 35.0566 314.749 34.6655C314.086 34.2743 313.563 33.7344 313.18 33.0456C312.806 32.3484 312.619 31.5449 312.619 30.635C312.619 29.7252 312.806 28.9259 313.18 28.2372C313.563 27.5399 314.086 26.9957 314.749 26.6046C315.421 26.2135 316.203 26.0179 317.096 26.0179C317.98 26.0179 318.758 26.2135 319.43 26.6046C320.101 26.9957 320.624 27.5399 320.999 28.2372C321.373 28.9259 321.56 29.7252 321.56 30.635C321.56 31.5449 321.373 32.3484 320.999 33.0456C320.624 33.7344 320.101 34.2743 319.43 34.6655C318.758 35.0566 317.98 35.2522 317.096 35.2522ZM317.096 33.7854C317.946 33.7854 318.622 33.5048 319.124 32.9436C319.634 32.3824 319.889 31.6129 319.889 30.635C319.889 29.6572 319.634 28.8877 319.124 28.3265C318.622 27.7653 317.946 27.4847 317.096 27.4847C316.245 27.4847 315.565 27.7653 315.055 28.3265C314.545 28.8877 314.29 29.6572 314.29 30.635C314.29 31.6129 314.545 32.3824 315.055 32.9436C315.565 33.5048 316.245 33.7854 317.096 33.7854ZM327.325 35.2522C326.67 35.2522 326.092 35.1416 325.59 34.9206C325.089 34.691 324.693 34.3679 324.404 33.9512C324.115 33.5261 323.966 33.0116 323.958 32.4079H325.68C325.697 32.8246 325.845 33.1774 326.126 33.4665C326.415 33.7471 326.811 33.8874 327.312 33.8874C327.746 33.8874 328.09 33.7854 328.345 33.5813C328.6 33.3688 328.728 33.0882 328.728 32.7395C328.728 32.3739 328.613 32.089 328.384 31.885C328.163 31.6809 327.865 31.5151 327.491 31.3875C327.117 31.26 326.717 31.124 326.292 30.9794C325.603 30.7413 325.076 30.4352 324.71 30.0611C324.353 29.6869 324.175 29.1895 324.175 28.5688C324.166 28.0416 324.289 27.5909 324.544 27.2168C324.808 26.8342 325.165 26.5408 325.616 26.3367C326.067 26.1242 326.585 26.0179 327.172 26.0179C327.767 26.0179 328.29 26.1242 328.741 26.3367C329.2 26.5493 329.557 26.8469 329.812 27.2296C330.076 27.6122 330.216 28.0671 330.233 28.5943H328.486C328.477 28.2797 328.354 28.0033 328.116 27.7653C327.886 27.5187 327.563 27.3954 327.146 27.3954C326.789 27.3869 326.487 27.4762 326.241 27.6632C326.003 27.8418 325.884 28.1054 325.884 28.454C325.884 28.7516 325.977 28.9897 326.164 29.1683C326.351 29.3383 326.606 29.4829 326.93 29.6019C327.253 29.721 327.623 29.8485 328.039 29.9845C328.481 30.1376 328.885 30.3162 329.251 30.5202C329.617 30.7243 329.91 30.9964 330.131 31.3365C330.352 31.6681 330.463 32.0975 330.463 32.6247C330.463 33.0924 330.344 33.5261 330.105 33.9257C329.867 34.3253 329.515 34.6485 329.047 34.895C328.579 35.1331 328.005 35.2522 327.325 35.2522ZM335.129 35.0991V27.4847H332.527V26.1709H339.377V27.4847H336.762V35.0991H335.129ZM340.341 35.0991L343.606 26.1709H345.443L348.708 35.0991H346.973L346.259 33.0329H342.777L342.05 35.0991H340.341ZM343.223 31.7574H345.813L344.512 28.0459L343.223 31.7574Z" fill="#FEFBFF"/>
<circle cx="303.105" cy="190.432" r="24.3136" fill="#E71924"/>
<circle cx="332.736" cy="190.432" r="24.3136" fill="#F99F19"/>
<path fill-rule="evenodd" clip-rule="evenodd" d="M317.921 171.057C323.698 175.502 327.42 182.485 327.42 190.337C327.42 198.189 323.698 205.171 317.922 209.616C312.146 205.171 308.424 198.189 308.424 190.337C308.424 182.485 312.146 175.502 317.921 171.057Z" fill="#F26520"/>
<rect x="43.5874" y="75.3462" width="52.0464" height="36.8503" rx="3.22915" fill="url(#paint2_linear_940_143)" stroke="#211F21" stroke-width="1.1397"/>
<path d="M43.7773 87.313H59.3533" stroke="#211F21" stroke-width="1.06288" stroke-linecap="round"/>
<path d="M43.7773 99.0903H59.0118" stroke="#211F21" stroke-width="1.06288" stroke-linecap="round"/>
<path d="M80.2461 99.0903H95.4421" stroke="#211F21" stroke-width="1.06288" stroke-linecap="round"/>
<path d="M80.0195 87.6929H95.4439" stroke="#211F21" stroke-width="1.06288" stroke-linecap="round"/>
<circle cx="69.6104" cy="80.8555" r="1.1397" fill="#211F21"/>
<path d="M123.639 101.721C126.441 94.6878 126.76 90.7175 123.639 83.557C123.308 82.7972 123.639 82.164 124.019 82.0374C124.399 81.9108 124.987 82.0374 125.349 82.7972C129.025 90.5111 128.801 94.8367 125.539 102.552C125.159 103.312 124.448 103.408 124.019 103.122C123.518 102.788 123.403 102.315 123.639 101.721Z" fill="#FEFBFF"/>
<path d="M119.65 84.1269C119.27 84.3168 119.027 85.0373 119.46 85.8364C122.016 91.154 121.911 94.195 119.46 99.7028C119.193 100.258 119.358 100.872 119.84 101.032C120.41 101.222 120.908 100.818 121.17 100.273C123.983 94.4192 124.058 91.0564 121.17 84.8867C120.903 84.3168 120.22 83.8419 119.65 84.1269Z" fill="#FEFBFF"/>
<path d="M115.851 86.5962C115.281 86.7862 115.18 87.4167 115.471 88.1158C116.984 91.7506 117.222 93.7887 115.471 97.4234C115.13 98.0566 115.018 98.7284 115.661 98.943C116.305 99.1575 116.769 98.8189 116.991 98.3731C119.235 93.9223 118.732 91.4269 116.991 86.9761C116.842 86.5962 116.421 86.4063 115.851 86.5962Z" fill="#FEFBFF"/>
<path d="M111.862 88.1158C111.292 88.4957 111.212 89.0719 111.672 90.0153C112.634 92.0171 112.612 93.1416 111.672 95.144C111.236 96.0271 111.103 97.0435 111.862 97.2334C112.622 97.4234 112.96 97.1536 113.382 96.0937C114.352 93.3049 114.447 91.728 113.382 88.8756C113.137 88.1356 112.622 87.7359 111.862 88.1158Z" fill="#FEFBFF"/>
<path d="M77.9667 83.1346C76.5091 78.1703 73.7878 75.7266 69.4189 75.7266C64.1003 75.7266 62.5971 79.7764 59.3516 87.1236C61.43 91.9872 61.4517 94.607 59.3516 99.0904C62.7563 108.859 65.2785 111.867 69.6089 111.817C75.3074 111.817 76.9293 106.987 80.0561 99.0904C78.4116 94.6393 78.2361 92.183 79.7657 87.732" stroke="#211F21" stroke-width="1.06288" stroke-linecap="round"/>
<path d="M45.1449 206.811V183.003H49.4984L60.6884 199.771V183.003H65.042V206.811H60.6884L49.4984 190.077V206.811H45.1449ZM75.8817 207.219C73.773 207.219 72.1404 206.562 70.984 205.246C69.8502 203.931 69.2834 202.004 69.2834 199.464V189.941H73.6029V199.056C73.6029 200.507 73.8977 201.619 74.4872 202.389C75.0768 203.16 76.0064 203.546 77.2762 203.546C78.478 203.546 79.4643 203.115 80.2353 202.253C81.0289 201.392 81.4257 200.19 81.4257 198.648V189.941H85.7793V206.811H81.9359L81.5958 203.954C81.0742 204.952 80.3146 205.745 79.317 206.335C78.3419 206.924 77.1969 207.219 75.8817 207.219ZM90.2484 206.811V182.322H94.602V206.811H90.2484ZM99.0504 206.811V182.322H103.404V206.811H99.0504ZM107.954 206.811V183.003H117.512C119.983 183.003 121.865 183.581 123.158 184.737C124.473 185.871 125.131 187.333 125.131 189.125C125.131 190.621 124.722 191.823 123.906 192.73C123.112 193.614 122.137 194.215 120.981 194.533C122.342 194.805 123.464 195.485 124.348 196.573C125.233 197.639 125.675 198.886 125.675 200.315C125.675 202.197 124.994 203.75 123.634 204.974C122.273 206.199 120.346 206.811 117.852 206.811H107.954ZM112.308 193.002H116.866C118.09 193.002 119.031 192.719 119.689 192.152C120.346 191.585 120.675 190.78 120.675 189.737C120.675 188.739 120.346 187.957 119.689 187.39C119.054 186.801 118.09 186.506 116.798 186.506H112.308V193.002ZM112.308 203.274H117.172C118.464 203.274 119.462 202.979 120.165 202.389C120.89 201.777 121.253 200.927 121.253 199.839C121.253 198.727 120.879 197.855 120.131 197.22C119.382 196.585 118.373 196.267 117.104 196.267H112.308V203.274ZM135.125 207.219C133.674 207.219 132.484 206.992 131.554 206.539C130.624 206.063 129.933 205.439 129.479 204.668C129.026 203.897 128.799 203.047 128.799 202.117C128.799 200.553 129.411 199.283 130.636 198.308C131.86 197.333 133.697 196.845 136.146 196.845H140.431V196.437C140.431 195.281 140.102 194.431 139.445 193.886C138.787 193.342 137.971 193.07 136.996 193.07C136.112 193.07 135.341 193.286 134.683 193.716C134.026 194.125 133.617 194.737 133.459 195.553H129.207C129.321 194.329 129.729 193.263 130.432 192.356C131.157 191.449 132.087 190.757 133.221 190.281C134.354 189.782 135.624 189.533 137.03 189.533C139.433 189.533 141.327 190.134 142.71 191.336C144.093 192.537 144.785 194.238 144.785 196.437V206.811H141.077L140.669 204.09C140.17 204.997 139.468 205.745 138.561 206.335C137.676 206.924 136.531 207.219 135.125 207.219ZM136.112 203.818C137.359 203.818 138.322 203.41 139.003 202.594C139.706 201.777 140.148 200.768 140.329 199.566H136.622C135.465 199.566 134.638 199.782 134.139 200.213C133.64 200.621 133.391 201.131 133.391 201.743C133.391 202.401 133.64 202.911 134.139 203.274C134.638 203.637 135.295 203.818 136.112 203.818ZM148.939 206.811V189.941H152.783L153.123 192.798C153.644 191.8 154.393 191.007 155.368 190.417C156.365 189.828 157.533 189.533 158.871 189.533C160.957 189.533 162.578 190.19 163.735 191.506C164.891 192.821 165.469 194.748 165.469 197.288V206.811H161.116V197.696C161.116 196.245 160.821 195.134 160.231 194.363C159.642 193.592 158.723 193.206 157.476 193.206C156.252 193.206 155.243 193.637 154.449 194.499C153.678 195.36 153.293 196.562 153.293 198.104V206.811H148.939ZM169.632 206.811V182.322H173.986V196.777L179.972 189.941H185.142L178.237 197.628L186.264 206.811H180.822L173.986 198.342V206.811H169.632Z" fill="white"/>
<defs>
<linearGradient id="paint0_linear_940_143" x1="-8.36729" y1="-20.6407" x2="401.282" y2="266.846" gradientUnits="userSpaceOnUse">
<stop stop-color="#3777F4"/>
<stop offset="1" stop-color="#1B2A4C"/>
</linearGradient>
<linearGradient id="paint1_linear_940_143" x1="-8.36729" y1="-20.6411" x2="401.282" y2="266.846" gradientUnits="userSpaceOnUse">
<stop stop-color="#3777F4"/>
<stop offset="1" stop-color="#1B2A4C"/>
</linearGradient>
<linearGradient id="paint2_linear_940_143" x1="91.7247" y1="80.0256" x2="47.0838" y2="109.786" gradientUnits="userSpaceOnUse">
<stop stop-color="#F4F4F4"/>
<stop offset="1" stop-color="#D6D6D6"/>
</linearGradient>
</defs>
</svg>
