<svg width="295" height="603" viewBox="0 0 295 603" fill="none" xmlns="http://www.w3.org/2000/svg">
<rect x="8" y="5" width="279" height="593" rx="39" fill="url(#paint0_linear_857_172)" stroke="#DBE4FF" stroke-width="10"/>
<path d="M56.9946 317V286.173H62.6315L77.12 307.884V286.173H82.7569V317H77.12L62.6315 295.333V317H56.9946ZM96.792 317.528C94.0616 317.528 91.9478 316.677 90.4505 314.974C88.9825 313.271 88.2486 310.776 88.2486 307.488V295.157H93.8414V306.959C93.8414 308.838 94.2231 310.277 94.9864 311.275C95.7497 312.273 96.9534 312.772 98.5975 312.772C100.154 312.772 101.431 312.215 102.429 311.099C103.456 309.983 103.97 308.427 103.97 306.431V295.157H109.607V317H104.631L104.19 313.301C103.515 314.593 102.532 315.62 101.24 316.383C99.9774 317.147 98.4948 317.528 96.792 317.528ZM115.394 317V285.293H121.03V317H115.394ZM126.79 317V285.293H132.427V317H126.79ZM138.319 317V286.173H150.694C153.894 286.173 156.33 286.922 158.004 288.419C159.707 289.887 160.558 291.781 160.558 294.1C160.558 296.038 160.03 297.594 158.973 298.768C157.945 299.913 156.683 300.691 155.185 301.102C156.947 301.455 158.4 302.335 159.545 303.745C160.69 305.124 161.263 306.739 161.263 308.589C161.263 311.025 160.382 313.037 158.62 314.622C156.859 316.207 154.363 317 151.134 317H138.319ZM143.956 299.121H149.857C151.442 299.121 152.661 298.754 153.512 298.02C154.363 297.286 154.789 296.243 154.789 294.893C154.789 293.601 154.363 292.588 153.512 291.854C152.69 291.091 151.442 290.709 149.769 290.709H143.956V299.121ZM143.956 312.42H150.253C151.927 312.42 153.218 312.038 154.129 311.275C155.068 310.482 155.538 309.381 155.538 307.972C155.538 306.534 155.053 305.403 154.084 304.581C153.116 303.759 151.809 303.348 150.165 303.348H143.956V312.42ZM173.499 317.528C171.62 317.528 170.079 317.235 168.875 316.648C167.671 316.031 166.776 315.224 166.189 314.226C165.602 313.227 165.308 312.126 165.308 310.923C165.308 308.897 166.101 307.253 167.686 305.99C169.271 304.728 171.649 304.097 174.82 304.097H180.369V303.568C180.369 302.071 179.943 300.97 179.092 300.266C178.241 299.561 177.184 299.209 175.921 299.209C174.776 299.209 173.778 299.488 172.927 300.045C172.075 300.574 171.547 301.366 171.341 302.423H165.836C165.983 300.838 166.512 299.458 167.422 298.284C168.361 297.109 169.565 296.214 171.033 295.597C172.501 294.952 174.145 294.629 175.965 294.629C179.077 294.629 181.529 295.407 183.32 296.963C185.11 298.519 186.006 300.721 186.006 303.568V317H181.206L180.677 313.477C180.031 314.651 179.121 315.62 177.947 316.383C176.802 317.147 175.319 317.528 173.499 317.528ZM174.776 313.125C176.391 313.125 177.639 312.596 178.519 311.539C179.43 310.482 180.002 309.176 180.237 307.62H175.437C173.939 307.62 172.868 307.899 172.222 308.457C171.576 308.985 171.253 309.646 171.253 310.438C171.253 311.29 171.576 311.95 172.222 312.42C172.868 312.89 173.719 313.125 174.776 313.125ZM191.385 317V295.157H196.361L196.802 298.856C197.477 297.565 198.446 296.537 199.708 295.774C201 295.01 202.512 294.629 204.244 294.629C206.945 294.629 209.044 295.48 210.542 297.183C212.039 298.886 212.788 301.381 212.788 304.669V317H207.151V305.198C207.151 303.319 206.769 301.88 206.006 300.882C205.242 299.884 204.053 299.385 202.439 299.385C200.853 299.385 199.547 299.943 198.519 301.058C197.521 302.174 197.022 303.73 197.022 305.726V317H191.385ZM218.178 317V285.293H223.815V304.009L231.565 295.157H238.259L229.319 305.11L239.712 317H232.666L223.815 306.035V317H218.178Z" fill="white"/>
<rect x="108.5" y="17.5" width="77" height="23" rx="10.5" fill="#DBE4FF" stroke="#DBE4FF"/>
<circle cx="174" cy="29" r="4" fill="#4C6EF5"/>
<path d="M0 107C0 106.448 0.447715 106 1 106H3V127H1C0.447715 127 0 126.552 0 126V107Z" fill="#4C6EF5"/>
<path d="M0 147C0 146.448 0.447715 146 1 146H3V188H1C0.447715 188 0 187.552 0 187V147Z" fill="#4C6EF5"/>
<path d="M0 199C0 198.448 0.447715 198 1 198H3V240H1C0.447715 240 0 239.552 0 239V199Z" fill="#4C6EF5"/>
<path d="M295 240C295 240.552 294.552 241 294 241H292V175H294C294.552 175 295 175.448 295 176V240Z" fill="#4C6EF5"/>
<defs>
<linearGradient id="paint0_linear_857_172" x1="92.902" y1="-81.1594" x2="570.056" y2="481.949" gradientUnits="userSpaceOnUse">
<stop stop-color="#4C6EF5"/>
<stop offset="1" stop-color="#1E325F"/>
</linearGradient>
</defs>
</svg>
